<!DOCTYPE svg PUBLIC "-//W3C//DTD SVG 1.1//EN" "http://www.w3.org/Graphics/SVG/1.1/DTD/svg11.dtd">
<!-- Uploaded to: SVG Repo, www.svgrepo.com, Transformed by: SVG Repo Mixer Tools -->
<svg width="800px" height="800px" viewBox="0 0 48 48" id="Layer_2" data-name="Layer 2" xmlns="http://www.w3.org/2000/svg" fill="#000000">
<g id="SVGRepo_bgCarrier" stroke-width="0"/>
<g id="SVGRepo_tracerCarrier" stroke-linecap="round" stroke-linejoin="round"/>
<g id="SVGRepo_iconCarrier">
<defs>
<style>.cls-1{fill:none;stroke:#ffffff;stroke-linecap:round;stroke-linejoin:round;}</style>
</defs>
<path class="cls-1" d="M7.5,5.5h33a2,2,0,0,1,2,2v33a2,2,0,0,1-2,2H7.5a2,2,0,0,1-2-2V7.5A2,2,0,0,1,7.5,5.5Zm5,4.81a2.21,2.21,0,0,0-2.22,2.22v21a2.22,2.22,0,0,0,2.22,2.22h6.85a2.22,2.22,0,0,0,2.21-2.22v-21a2.21,2.21,0,0,0-2.21-2.22Zm16.09,0a2.22,2.22,0,0,0-2.22,2.22V24.28a2.23,2.23,0,0,0,2.22,2.22h6.85a2.22,2.22,0,0,0,2.22-2.22V12.53a2.21,2.21,0,0,0-2.22-2.22Z"/>
</g>
</svg>