<?xml version="1.0" encoding="utf-8"?><svg version="1.1" id="Layer_1" xmlns="http://www.w3.org/2000/svg" xmlns:xlink="http://www.w3.org/1999/xlink" x="0px" y="0px" width="122.881px" height="111.586px" viewBox="0 0 122.881 111.586" enable-background="new 0 0 122.881 111.586" xml:space="preserve"><g><path fill="white" d="M84.13,62.236c1.232,1.227,1.238,3.219,0.013,4.453c-1.227,1.232-3.22,1.238-4.453,0.012L54.307,41.512 c-0.033-0.033-0.065-0.066-0.097-0.101l-0.002,0.002c-3.878-4.225-8.131-5.309-11.436-4.404c-1.193,0.327-2.266,0.913-3.145,1.697 c-0.86,0.768-1.539,1.741-1.966,2.862c-1.111,2.917-0.436,6.87,3.212,10.972l46.178,46.178c0.063,0.063,0.122,0.127,0.178,0.193 c6.047,6.191,13.243,7.463,19.001,5.541c2.216-0.738,4.221-1.945,5.862-3.518c1.632-1.564,2.904-3.486,3.668-5.664 c2.023-5.781,0.498-13.502-7.238-21.533l-0.003-0.002c-7.092-7.115-13.764-14.41-20.356-21.619 c-13.042-14.26-25.766-28.172-41.806-40.517C40.206,6.868,32.528,5.47,25.519,6.728c-3.063,0.549-5.991,1.604-8.599,3.106 c-2.564,1.477-4.822,3.394-6.593,5.694C7.099,19.723,5.51,25.251,6.68,31.773c1.963,10.945,8.163,17.134,15.633,24.592 c0.764,0.762,1.541,1.537,2.323,2.328l23.785,24.014l8.046,8.123c1.226,1.234,1.22,3.227-0.013,4.453 c-1.232,1.227-3.226,1.221-4.452-0.012l-8.045-8.125L20.171,63.133c-0.778-0.787-1.545-1.551-2.298-2.303 C9.638,52.608,2.803,45.785,0.489,32.883c-1.515-8.442,0.594-15.667,4.855-21.203c2.272-2.953,5.163-5.409,8.443-7.298 c3.237-1.864,6.853-3.17,10.622-3.846c8.646-1.551,18.146,0.195,25.796,6.082c16.42,12.637,29.347,26.771,42.596,41.256 c6.46,7.064,12.999,14.213,20.188,21.426c0.024,0.023,0.049,0.047,0.072,0.072c9.653,10.02,11.387,20.137,8.645,27.969 c-1.103,3.148-2.923,5.904-5.247,8.133c-2.314,2.217-5.129,3.914-8.229,4.949c-7.865,2.625-17.557,1.029-25.504-7.111 c-0.047-0.041-0.093-0.084-0.138-0.129L36.398,56.994l0.003-0.002c-0.039-0.039-0.077-0.08-0.114-0.121 c-5.556-6.161-6.417-12.568-4.521-17.547c0.783-2.055,2.05-3.859,3.668-5.304c1.6-1.428,3.539-2.489,5.686-3.078 c5.375-1.473,12.026,0.003,17.716,6.194L84.13,62.236L84.13,62.236z"/></g></svg>