<?xml version="1.0" encoding="utf-8"?><svg version="1.1" id="Layer_1" xmlns="http://www.w3.org/2000/svg" xmlns:xlink="http://www.w3.org/1999/xlink" x="0px" y="0px" viewBox="0 0 122.88 77.36" style="enable-background:new 0 0 122.88 77.36" xml:space="preserve"><style type="text/css">.st0{fill-rule:evenodd;clip-rule:evenodd;}</style><g><path fill="white" class="st0" d="M24.94,45.15l5.54,16.29l2.79-9.67l-1.37-1.49c-0.62-0.9-0.75-1.68-0.41-2.36c0.74-1.46,2.27-1.19,3.7-1.19 c1.5,0,3.35-0.28,3.82,1.59c0.16,0.63-0.04,1.28-0.48,1.96l-1.37,1.49l2.79,9.67l5.02-16.29c3.62,3.26,14.33,3.91,18.32,6.13 c1.26,0.7,2.4,1.6,3.31,2.81c1.39,1.83,2.24,4.23,2.47,7.27l0.83,12.43c-0.2,2.15-1.42,3.39-3.83,3.58H35.21H3.83 C1.42,77.18,0.2,75.94,0,73.79l0.83-12.43c0.23-3.04,1.08-5.44,2.47-7.27c0.92-1.21,2.05-2.1,3.32-2.81 C10.61,49.06,21.32,48.41,24.94,45.15L24.94,45.15z M74.92,32.57l3.15-0.08l2.62-0.07c-3.06-9.41-2.03-18.05,5.32-25.39 c1.25,4.03,4.05,7.36,8.8,9.82c2.28,1.69,4.48,3.73,6.61,6.08c0.38-1.55-1.06-3.44-2.81-5.39c1.62,0.8,3.1,1.92,4.16,4.07 c1.22,2.49,1.21,4.6,0.8,7.3c-0.19,1.26-0.5,2.43-0.93,3.51h4.35c4.59-9.83,1.68-24.42-7.71-30.6C96.4-0.07,94.33,0,90.95,0 c-3.87,0-5.85,0.12-9.16,2.31c-4.89,3.23-7.89,8.82-9.15,16.59C72.38,22.77,72.21,29.46,74.92,32.57L74.92,32.57z M86.89,50.46 l2.35-8.16l-1.15-1.26c-0.52-0.76-0.63-1.42-0.34-1.99c0.62-1.23,1.92-1,3.12-1c1.26,0,2.82-0.24,3.22,1.34 c0.13,0.53-0.03,1.08-0.4,1.65l-1.15,1.26l2.35,8.16l-4,3.16L86.89,50.46L86.89,50.46z M107.92,47.63 c-1.78-3.57-4.04-6.61-6.67-9.45c4.95,1.92,10.01,3.81,13.76,6.16c2.38,1.49,3.62,2.62,4.58,4.43c2.05,3.85,2.27,7.3,2.58,11.47 l0.72,7.21H90.89H75.23c-0.19-4.46,0.01-7.77-1.47-12.05c-0.62-1.79-1.47-3.39-2.53-4.8c-0.71-0.94-1.54-1.78-2.46-2.55 c-0.86-0.72-1.76-1.32-2.67-1.83c-0.38-0.21-0.78-0.41-1.2-0.59c0.54-0.42,1.16-0.84,1.88-1.29c3.75-2.35,8.8-4.24,13.76-6.16 c-2.63,2.85-4.89,5.88-6.67,9.45l5.16-0.13l11.87,10.32l11.87-10.32L107.92,47.63L107.92,47.63z M22.11,22 c-0.5,0.05-0.88,0.17-1.16,0.36c-0.18,0.12-0.31,0.27-0.4,0.46c-0.1,0.21-0.14,0.47-0.13,0.76c0.03,0.91,0.51,2.12,1.45,3.51 l0.02,0.02l0,0l3.1,4.92c1.24,1.97,2.53,3.97,4.14,5.44c1.53,1.4,3.39,2.35,5.84,2.35c2.66,0.01,4.6-0.98,6.18-2.46 c1.65-1.55,2.97-3.68,4.26-5.81l3.48-5.73c0.71-1.61,0.92-2.6,0.69-3.07c-0.13-0.27-0.61-0.37-1.39-0.33 c-0.54,0.16-1.17,0.14-1.91-0.06l1.41-5.41c-6.38-0.08-10.74-1.19-15.9-4.49c-1.7-1.08-2.21-2.32-3.9-2.2 c-1.28,0.25-2.36,0.82-3.21,1.74c-0.82,0.88-1.44,2.09-1.84,3.63l1.03,6.4C23.17,22.18,22.59,22.15,22.11,22L22.11,22z M49.82,20.57c0.73,0.22,1.26,0.64,1.58,1.29c0.52,1.05,0.31,2.61-0.67,4.84l0,0c-0.02,0.04-0.04,0.08-0.06,0.12l-3.53,5.81 c-1.37,2.25-2.75,4.5-4.61,6.24c-1.93,1.81-4.32,3.02-7.58,3.01c-3.04-0.01-5.34-1.17-7.21-2.89c-1.81-1.65-3.18-3.77-4.49-5.85 l-3.09-4.92c-1.15-1.71-1.74-3.28-1.78-4.57c-0.02-0.62,0.09-1.18,0.32-1.68c0.24-0.52,0.61-0.96,1.12-1.3 c0.24-0.16,0.52-0.3,0.82-0.41c-0.19-2.65-0.26-5.94-0.13-8.7c0.07-0.67,0.19-1.34,0.38-2.01c0.79-2.83,2.78-5.1,5.23-6.67 c0.87-0.55,1.81-1.01,2.82-1.37c5.95-2.15,13.83-0.98,18.05,3.59c1.72,1.86,2.8,4.33,3.03,7.59L49.82,20.57L49.82,20.57z"/></g></svg>